<?xml version="1.0" encoding="UTF-8"?>
<svg version="1.1" xmlns="http://www.w3.org/2000/svg" width="760" height="476">
<path d="M0 0 C250.8 0 501.6 0 760 0 C760 157.08 760 314.16 760 476 C509.2 476 258.4 476 0 476 C0 318.92 0 161.84 0 0 Z " fill="#E9EAE8" transform="translate(0,0)"/>
<path d="M0 0 C0.66 0 1.32 0 2 0 C2.99 0 3.98 0 5 0 C5.14554346 3.08283443 5.23413821 6.16478439 5.3125 9.25 C5.3753418 10.55904297 5.3753418 10.55904297 5.43945312 11.89453125 C5.56295587 18.36607524 5.56295587 18.36607524 2.70703125 21.58203125 C-0.79284201 23.4152982 -3.10226323 23.50526217 -7 23 C-8.9375 21.625 -8.9375 21.625 -10 20 C-10 19.34 -10 18.68 -10 18 C-6.7 18.33 -3.4 18.66 0 19 C0 18.34 0 17.68 0 17 C-0.928125 17.061875 -1.85625 17.12375 -2.8125 17.1875 C-6 17 -6 17 -7.8125 15.625 C-10.4640416 11.99657466 -10.61219102 8.3629388 -10 4 C-7.24357868 -0.24064819 -4.86074948 -0.42267387 0 0 Z " fill="#B4BBC2" transform="translate(433,233)"/>
<path d="M0 0 C3 1.8125 3 1.8125 5 4 C5 4.99 5 5.98 5 7 C4.01 7 3.02 7 2 7 C1.34 6.01 0.68 5.02 0 4 C-3.58357241 3.74984127 -3.58357241 3.74984127 -7 4 C-7 5.32 -7 6.64 -7 8 C-6.31292969 8.18175781 -5.62585938 8.36351562 -4.91796875 8.55078125 C-4.01691406 8.80214844 -3.11585938 9.05351562 -2.1875 9.3125 C-1.29417969 9.55613281 -0.40085937 9.79976562 0.51953125 10.05078125 C3.09220316 11.03528405 4.3682972 11.79720122 6 14 C5.93074428 17.32427437 5.59231563 19.25960546 3.5 21.875 C-0.32989974 23.59845488 -3.88133944 23.79881495 -8 23 C-11.0625 20.6875 -11.0625 20.6875 -13 18 C-13 17.01 -13 16.02 -13 15 C-12.01 15 -11.02 15 -10 15 C-9.608125 15.66 -9.21625 16.32 -8.8125 17 C-7.22347232 19.18519022 -7.22347232 19.18519022 -5.03125 19.265625 C-3.01893442 19.25145376 -1.00805287 19.1316756 1 19 C1 17.68 1 16.36 1 15 C0.22914063 14.73445312 -0.54171875 14.46890625 -1.3359375 14.1953125 C-2.84027344 13.66550781 -2.84027344 13.66550781 -4.375 13.125 C-5.37273437 12.77695313 -6.37046875 12.42890625 -7.3984375 12.0703125 C-10 11 -10 11 -12 9 C-11.8125 5.5 -11.8125 5.5 -11 2 C-7.31028744 -0.45980837 -4.28401332 -0.69177647 0 0 Z " fill="#B3BBC2" transform="translate(379,227)"/>
<path d="M0 0 C0.99 0.66 1.98 1.32 3 2 C3.38411275 4.609621 3.60293197 7.0058074 3.6875 9.625 C3.73874023 10.68460938 3.73874023 10.68460938 3.79101562 11.765625 C3.87351308 13.50985688 3.93843335 15.25490395 4 17 C3.21625 16.814375 2.4325 16.62875 1.625 16.4375 C-0.97089775 15.74037734 -0.97089775 15.74037734 -3 17 C-8.26843658 17.44837758 -8.26843658 17.44837758 -10.9375 15.8125 C-12 14 -12 14 -11.875 11.4375 C-11 9 -11 9 -8 7 C-5.95703125 6.5859375 -5.95703125 6.5859375 -3.8125 6.375 C-2.554375 6.25125 -1.29625 6.1275 0 6 C-0.33 5.34 -0.66 4.68 -1 4 C-2.98 4 -4.96 4 -7 4 C-7.33 4.66 -7.66 5.32 -8 6 C-8.99 6 -9.98 6 -11 6 C-10.6875 4.125 -10.6875 4.125 -10 2 C-6.31282562 -0.45811625 -4.35654296 -0.31118164 0 0 Z " fill="#B2B9C0" transform="translate(399,233)"/>
<path d="M0 0 C0.99 0.66 1.98 1.32 3 2 C3.38411275 4.609621 3.60293197 7.0058074 3.6875 9.625 C3.73874023 10.68460938 3.73874023 10.68460938 3.79101562 11.765625 C3.87351308 13.50985688 3.93843335 15.25490395 4 17 C1.87527424 17.05386629 -0.24983652 17.09273071 -2.375 17.125 C-3.55835938 17.14820313 -4.74171875 17.17140625 -5.9609375 17.1953125 C-9 17 -9 17 -11 15 C-11.3125 12 -11.3125 12 -11 9 C-8.09907498 7.06604999 -7.10325263 6.69868059 -3.8125 6.375 C-2.554375 6.25125 -1.29625 6.1275 0 6 C0 5.01 0 4.02 0 3 C-2.3431213 3.25561323 -4.67843403 3.59270772 -7 4 C-7.33 4.66 -7.66 5.32 -8 6 C-8.99 6 -9.98 6 -11 6 C-10.6875 4.125 -10.6875 4.125 -10 2 C-6.31282562 -0.45811625 -4.35654296 -0.31118164 0 0 Z " fill="#B4BBC2" transform="translate(292,233)"/>
<path d="M0 0 C2.5 1.25 2.5 1.25 4 3 C4 4.32 4 5.64 4 7 C3.01 7 2.02 7 1 7 C0.34 6.01 -0.32 5.02 -1 4 C-4.58357241 3.74984127 -4.58357241 3.74984127 -8 4 C-8.33 5.32 -8.66 6.64 -9 8 C-7.86111328 8.29003906 -7.86111328 8.29003906 -6.69921875 8.5859375 C-5.70535156 8.84632813 -4.71148437 9.10671875 -3.6875 9.375 C-2.70136719 9.63023437 -1.71523438 9.88546875 -0.69921875 10.1484375 C2 11 2 11 5 13 C5.41327822 16.23734607 5.64023105 18.15605906 3.625 20.8125 C-0.00760252 23.46709415 -3.63406974 23.60939371 -8 23 C-11 21.25 -11 21.25 -13 19 C-13 17.68 -13 16.36 -13 15 C-12.01 15 -11.02 15 -10 15 C-9.67 16.32 -9.34 17.64 -9 19 C-6.03 19 -3.06 19 0 19 C0.33 17.68 0.66 16.36 1 15 C0.22914063 14.73445312 -0.54171875 14.46890625 -1.3359375 14.1953125 C-2.84027344 13.66550781 -2.84027344 13.66550781 -4.375 13.125 C-5.37273437 12.77695313 -6.37046875 12.42890625 -7.3984375 12.0703125 C-10 11 -10 11 -12 9 C-12.375 6.0625 -12.375 6.0625 -12 3 C-8.92174884 -0.84781395 -4.5541837 -0.69059343 0 0 Z " fill="#B2B9C0" transform="translate(273,227)"/>
<path d="M0 0 C2.4375 1.6875 2.4375 1.6875 4 4 C4 5.65 4 7.3 4 9 C0.04 9 -3.92 9 -8 9 C-7.34 10.32 -6.68 11.64 -6 13 C-2.4780279 13.08004482 0.61981469 13.04005702 4 12 C2.25 15.875 2.25 15.875 0 17 C-3.7621596 17.34834811 -6.14128053 17.50642431 -9.4375 15.5625 C-11.75587974 11.76035723 -11.77201236 8.33759522 -11 4 C-8.21093968 -0.57405892 -5.10245628 -0.72892233 0 0 Z " fill="#B2B9C0" transform="translate(470,233)"/>
<path d="M0 0 C2.4375 1.6875 2.4375 1.6875 4 4 C4 5.65 4 7.3 4 9 C0.04 9 -3.92 9 -8 9 C-7.34 10.32 -6.68 11.64 -6 13 C-2.4780279 13.08004482 0.61981469 13.04005702 4 12 C2.25 15.875 2.25 15.875 0 17 C-3.7621596 17.34834811 -6.14128053 17.50642431 -9.4375 15.5625 C-11.75587974 11.76035723 -11.77201236 8.33759522 -11 4 C-8.21093968 -0.57405892 -5.10245628 -0.72892233 0 0 Z " fill="#B2B9C0" transform="translate(452,233)"/>
<path d="M0 0 C1.32 0 2.64 0 4 0 C4.33 1.98 4.66 3.96 5 6 C5.928125 5.95875 6.85625 5.9175 7.8125 5.875 C11 6 11 6 14 8 C14.22137393 10.62697064 14.28162025 13.00893964 14.1875 15.625 C14.17396484 16.33140625 14.16042969 17.0378125 14.14648438 17.765625 C14.1111104 19.51074128 14.05730221 21.25546608 14 23 C13.01 23 12.02 23 11 23 C10.67 18.71 10.34 14.42 10 10 C8.35 10 6.7 10 5 10 C3.18884044 11.81115956 3.61800552 14.61278227 3.4375 17.0625 C3.35371094 18.16722656 3.26992188 19.27195313 3.18359375 20.41015625 C3.12300781 21.26480469 3.06242187 22.11945313 3 23 C2.01 23 1.02 23 0 23 C0 15.41 0 7.82 0 0 Z " fill="#B4BBC2" transform="translate(340,227)"/>
<path d="M0 0 C0.99 0 1.98 0 3 0 C3.33 2.31 3.66 4.62 4 7 C4.33 6.67 4.66 6.34 5 6 C10.27573169 5.54124072 10.27573169 5.54124072 12.68359375 7.06640625 C14.70789836 10.03979136 14.28491652 12.64803329 14.1875 16.1875 C14.16042969 17.45980469 14.13335937 18.73210937 14.10546875 20.04296875 C14.07066406 21.01878906 14.03585937 21.99460938 14 23 C13.01 23 12.02 23 11 23 C10.67 18.71 10.34 14.42 10 10 C8.35 10 6.7 10 5 10 C3.18884044 11.81115956 3.61800552 14.61278227 3.4375 17.0625 C3.35371094 18.16722656 3.26992188 19.27195313 3.18359375 20.41015625 C3.12300781 21.26480469 3.06242187 22.11945313 3 23 C2.01 23 1.02 23 0 23 C0 15.41 0 7.82 0 0 Z " fill="#B2B9C0" transform="translate(486,227)"/>
<path d="M0 0 C0.99 0.66 1.98 1.32 3 2 C3 2.99 3 3.98 3 5 C2.01 5 1.02 5 0 5 C0 4.34 0 3.68 0 3 C-1.98 3 -3.96 3 -6 3 C-6 3.99 -6 4.98 -6 6 C-5.36191406 6.13277344 -4.72382813 6.26554688 -4.06640625 6.40234375 C-2.82697266 6.66724609 -2.82697266 6.66724609 -1.5625 6.9375 C-0.73878906 7.11152344 0.08492188 7.28554687 0.93359375 7.46484375 C3 8 3 8 4 9 C4.28792759 11.73531209 4.34443368 13.41243666 2.9375 15.8125 C-0.13629218 17.69643714 -2.48385658 17.43180709 -6 17 C-8.4375 15.125 -8.4375 15.125 -10 13 C-10 12.34 -10 11.68 -10 11 C-8.68 11 -7.36 11 -6 11 C-6 11.99 -6 12.98 -6 14 C-3.69 14 -1.38 14 1 14 C1 13.01 1 12.02 1 11 C-1.01822917 10.54427083 -3.03645833 10.08854167 -5.0546875 9.6328125 C-7 9 -7 9 -9 7 C-9.3125 4.5 -9.3125 4.5 -9 2 C-5.53001271 -0.31332486 -4.07490752 -0.33957563 0 0 Z " fill="#B3BAC1" transform="translate(333,233)"/>
<path d="M0 0 C1.32 0.33 2.64 0.66 4 1 C4.33 0.67 4.66 0.34 5 0 C9.03160191 -0.26293056 10.55892734 -0.29404844 14 2 C14.22137393 4.62697064 14.28162025 7.00893964 14.1875 9.625 C14.17396484 10.33140625 14.16042969 11.0378125 14.14648438 11.765625 C14.1111104 13.51074128 14.05730221 15.25546608 14 17 C13.01 17 12.02 17 11 17 C10.67 12.71 10.34 8.42 10 4 C8.35 4 6.7 4 5 4 C3.18884044 5.81115956 3.61800552 8.61278227 3.4375 11.0625 C3.31181641 12.71958984 3.31181641 12.71958984 3.18359375 14.41015625 C3.12300781 15.26480469 3.06242187 16.11945313 3 17 C2.01 17 1.02 17 0 17 C0 11.39 0 5.78 0 0 Z " fill="#B3BAC1" transform="translate(299,233)"/>
<path d="M0 0 C10.3651777 -0.3658298 10.3651777 -0.3658298 12.84375 1.0625 C14.63736487 4.06801682 14.28253857 6.73443178 14.1875 10.1875 C14.16042969 11.45980469 14.13335937 12.73210937 14.10546875 14.04296875 C14.07066406 15.01878906 14.03585937 15.99460938 14 17 C13.01 17 12.02 17 11 17 C10.67 12.71 10.34 8.42 10 4 C7.03 3.505 7.03 3.505 4 3 C3.67 7.62 3.34 12.24 3 17 C2.01 17 1.02 17 0 17 C0 11.39 0 5.78 0 0 Z " fill="#B2B9C1" transform="translate(406,233)"/>
<path d="M0 0 C0.33 0 0.66 0 1 0 C1 5.61 1 11.22 1 17 C-4.94 17 -10.88 17 -17 17 C-16.67 16.34 -16.34 15.68 -16 15 C-14.9275 14.71125 -13.855 14.4225 -12.75 14.125 C-7.83632778 12.65089833 -5.18146018 10.68780025 -2.25 6.5 C-1.14724804 4.29449609 -0.44688722 2.413191 0 0 Z " fill="#FDFEFD" transform="translate(759,459)"/>
<path d="M0 0 C0.66 0 1.32 0 2 0 C3.11328125 1.42578125 3.11328125 1.42578125 4.3125 3.3125 C7.63766746 8.14910722 11.57202071 9.98389341 17 12 C17 12.33 17 12.66 17 13 C11.39 13 5.78 13 0 13 C0 8.71 0 4.42 0 0 Z " fill="#FEFEFE" transform="translate(0,463)"/>
<path d="M0 0 C5.61 0 11.22 0 17 0 C15.02 0.99 15.02 0.99 13 2 C6.03246475 6.24251817 6.03246475 6.24251817 2 13 C1.34 13 0.68 13 0 13 C0 8.71 0 4.42 0 0 Z " fill="#FDFDFD" transform="translate(0,0)"/>
<path d="M0 0 C0.99 0.33 1.98 0.66 3 1 C4.66362417 1.34820041 6.32995171 1.68404492 8 2 C7.37240135 4.92879371 6.41377341 7.36095629 5 10 C-0.41139241 10.36075949 -0.41139241 10.36075949 -2.9375 8.8125 C-4 7 -4 7 -3.875 4.4375 C-3 2 -3 2 0 0 Z " fill="#B5BCC2" transform="translate(391,240)"/>
<path d="M0 0 C1.2375 0.1546875 1.2375 0.1546875 2.5 0.3125 C4.5 3.3125 4.5 3.3125 4.1875 6.9375 C3.5 10.3125 3.5 10.3125 2.5 11.3125 C0.0625 11.5 0.0625 11.5 -2.5 11.3125 C-4.5 9.3125 -4.5 9.3125 -4.75 5.8125 C-4.46068549 1.7620969 -4.13470522 0.51683815 0 0 Z " fill="#E6E7E5" transform="translate(430.5,235.6875)"/>
<path d="M0 0 C0 1.98 0 3.96 0 6 C0.99 6 1.98 6 3 6 C3 6.66 3 7.32 3 8 C2.01 8 1.02 8 0 8 C0 11.96 0 15.92 0 20 C0.99 20 1.98 20 3 20 C3 20.99 3 21.98 3 23 C1.33388095 23.042721 -0.33382885 23.04063832 -2 23 C-3 22 -3 22 -3.09765625 18.83984375 C-3.08025391 16.90818359 -3.08025391 16.90818359 -3.0625 14.9375 C-3.05347656 13.64714844 -3.04445313 12.35679687 -3.03515625 11.02734375 C-3.02355469 10.02832031 -3.01195312 9.02929688 -3 8 C-3.66 8 -4.32 8 -5 8 C-5 7.34 -5 6.68 -5 6 C-4.34 6 -3.68 6 -3 6 C-3 4.35 -3 2.7 -3 1 C-1 0 -1 0 0 0 Z " fill="#B2B9C0" transform="translate(481,227)"/>
<path d="M0 0 C0 0.66 0 1.32 0 2 C-2.31 2.33 -4.62 2.66 -7 3 C-7 4.32 -7 5.64 -7 7 C-4.525 7.99 -4.525 7.99 -2 9 C-2 9.33 -2 9.66 -2 10 C-4.875 10.125 -4.875 10.125 -8 10 C-10 8 -10 8 -10.3125 5 C-10.209375 4.01 -10.10625 3.02 -10 2 C-6.3558226 -0.4294516 -4.28758728 -0.16179575 0 0 Z " fill="#B1B9C0" transform="translate(291,240)"/>
<path d="M0 0 C0.99 0 1.98 0 3 0 C3 5.61 3 11.22 3 17 C2.01 17 1.02 17 0 17 C0 11.39 0 5.78 0 0 Z " fill="#B1B9C0" transform="translate(317,233)"/>
<path d="M0 0 C0.33 0 0.66 0 1 0 C1 2.97 1 5.94 1 9 C-2.3 9 -5.6 9 -9 9 C-8.2575 8.443125 -7.515 7.88625 -6.75 7.3125 C-4.08475268 5.0712693 -2.12931282 2.73768791 0 0 Z " fill="#000000" transform="translate(759,467)"/>
<path d="M0 0 C1.0828125 1.11375 1.0828125 1.11375 2.1875 2.25 C4.68592573 4.69290515 7.23643202 6.8681047 10 9 C6.7 9 3.4 9 0 9 C0 6.03 0 3.06 0 0 Z " fill="#000000" transform="translate(0,467)"/>
<path d="M0 0 C2.97 0 5.94 0 9 0 C9 3.3 9 6.6 9 10 C6 6 6 6 6 4 C5.38125 3.71125 4.7625 3.4225 4.125 3.125 C2 2 2 2 0 0 Z " fill="#000000" transform="translate(751,0)"/>
<path d="M0 0 C2.97 0 5.94 0 9 0 C7.71034824 1.37562854 6.37310707 2.70766393 5 4 C4.34 4 3.68 4 3 4 C2.34 5.98 1.68 7.96 1 10 C0.67 10 0.34 10 0 10 C0 6.7 0 3.4 0 0 Z " fill="#000000" transform="translate(0,0)"/>
<path d="M0 0 C-0.875 3.875 -0.875 3.875 -2 5 C-3.99958364 5.04080783 -6.00045254 5.04254356 -8 5 C-8 3.68 -8 2.36 -8 1 C-5.10765685 0.17361624 -3.11257569 0 0 0 Z " fill="#E5E7E5" transform="translate(399,242)"/>
<path d="M0 0 C-0.875 3.875 -0.875 3.875 -2 5 C-3.99958364 5.04080783 -6.00045254 5.04254356 -8 5 C-8 3.68 -8 2.36 -8 1 C-5.10765685 0.17361624 -3.11257569 0 0 0 Z " fill="#E5E7E5" transform="translate(292,242)"/>
<path d="M0 0 C1.98 0 3.96 0 6 0 C6.66 1.32 7.32 2.64 8 4 C5.03 4 2.06 4 -1 4 C-0.67 2.68 -0.34 1.36 0 0 Z " fill="#DDDFDF" transform="translate(463,236)"/>
<path d="M0 0 C1.98 0 3.96 0 6 0 C6.66 1.32 7.32 2.64 8 4 C5.03 4 2.06 4 -1 4 C-0.67 2.68 -0.34 1.36 0 0 Z " fill="#DEDFDF" transform="translate(445,236)"/>
</svg>
